<svg width="876" height="542" viewBox="0 0 876 542" fill="none" xmlns="http://www.w3.org/2000/svg">
<path d="M643.621 202.716C596.085 182.346 497.229 151.299 363.036 239.381" stroke="black" stroke-width="0.336534"/>
<path d="M215.802 243.595C278.482 240.645 432.866 236.515 548.971 243.595" stroke="black" stroke-width="0.336534"/>
<path d="M792.537 301.334H800.109L805.998 284.055V260.032L819.46 241.488C763.791 219.152 635.291 172.961 566.639 166.893C480.823 159.307 388.276 193.444 339.899 231.374C269.788 234.043 114.926 248.737 56.3694 286.162L50.9008 289.112C57.9119 292.764 69.5784 308.667 60.1554 343.057L74.8788 358.651" stroke="black" stroke-width="0.6"/>
<path d="M740.374 306.813L787.909 298.805" stroke="black" stroke-width="0.336534"/>
<path d="M805.578 318.192L799.268 307.234" stroke="black" stroke-width="0.336534"/>
<path d="M808.522 319.456L794.64 315.242L787.91 299.227L794.64 262.982L798.426 255.396L820.301 240.646" stroke="black" stroke-width="0.336534"/>
<path d="M766.035 342.636L806.839 318.192" stroke="black" stroke-width="0.336534"/>
<path d="M203.603 257.925V428.61" stroke="black" stroke-width="0.6"/>
<path d="M659.606 257.925V428.61" stroke="black" stroke-width="0.6"/>
<path d="M291.522 324.514L121.152 324.514" stroke="black" stroke-width="0.6"/>
<path d="M270.489 289.955L291.522 279.84L546.867 276.468L585.148 292.483" stroke="black" stroke-width="0.6"/>
<path d="M747.525 324.514L577.155 324.514" stroke="black" stroke-width="0.6"/>
<path d="M50.4801 360.336H140.503" stroke="black" stroke-width="0.6"/>
<path d="M266.703 360.758L623.849 351.486" stroke="black" stroke-width="0.6"/>
<path d="M689.053 345.586L805.998 332.521" stroke="black" stroke-width="0.336534"/>
<path d="M795.482 334.628L784.544 356.965L751.312 362.022" stroke="black" stroke-width="0.6"/>
<path d="M137.558 316.927C139.802 296.979 156.067 257.082 203.182 257.082C250.297 257.082 268.245 295.855 271.33 315.242" stroke="black" stroke-width="0.6"/>
<path d="M593.561 316.927C595.805 296.979 612.071 257.082 659.185 257.082C706.3 257.082 724.249 295.855 727.333 315.242" stroke="black" stroke-width="0.6"/>
<path d="M37.86 280.683L154.385 276.468" stroke="black" stroke-width="0.336534"/>
<path d="M254.924 272.254L407.206 265.932" stroke="black" stroke-width="0.336534"/>
<path d="M581.362 237.696C617.539 227.581 709.75 216.286 789.171 252.025" stroke="black" stroke-width="0.336534"/>
<path d="M635.207 200.608C612.491 226.316 549.223 238.033 371.87 234.324" stroke="black" stroke-width="0.336534"/>
<path d="M71.5134 349.8L148.916 345.164" stroke="black" stroke-width="0.336534"/>
<path d="M277.64 345.164L563.694 327.042" stroke="black" stroke-width="0.6"/>
<path d="M292.784 335.05L538.875 316.506" stroke="black" stroke-width="0.336534"/>
<path d="M129.145 345.164L108.532 336.314L78.244 338" stroke="black" stroke-width="0.336534"/>
<path d="M87.078 283.633C84.4138 288.55 86.6574 294.844 116.945 280.683C147.233 266.523 157.049 255.115 158.171 251.182" stroke="black"/>
<g filter="url(#filter0_f_81_242)">
<path d="M644.621 202.341C597.085 182.009 455.193 149.081 321 237" stroke="white" stroke-width="0.336534"/>
<path d="M216.802 243.145C279.482 240.201 433.866 236.078 549.971 243.145" stroke="white" stroke-width="0.336534"/>
<path d="M793.537 300.777H801.109L806.998 283.53V259.552L820.459 241.042C794.3 230.565 753 214.5 707.5 209.5C669.5 188 603.691 172.49 567.639 166.584C472.5 151 351.377 188.14 303 226C232.889 228.664 115.926 248.278 57.3694 285.633L51.9007 288.578C58.9118 292.223 70.5783 308.097 61.1554 342.423L75.8787 357.988" stroke="white" stroke-width="0.6"/>
<path d="M741.374 306.246L788.909 298.253" stroke="white" stroke-width="0.336534"/>
<path d="M806.578 317.604L800.268 306.667" stroke="white" stroke-width="0.336534"/>
<path d="M809.522 318.866L795.64 314.659L788.91 298.674L795.64 262.496L799.426 254.924L821.301 240.201" stroke="white" stroke-width="0.336534"/>
<path d="M767.035 342.002L807.839 317.604" stroke="white" stroke-width="0.336534"/>
<path d="M204.603 257.448V427.818" stroke="white" stroke-width="0.6"/>
<path d="M660.606 257.448V427.818" stroke="white" stroke-width="0.6"/>
<path d="M292.522 323.914L122.152 323.914" stroke="white" stroke-width="0.6"/>
<path d="M271.489 289.419L292.522 279.323L547.867 275.958L586.148 291.943" stroke="white" stroke-width="0.6"/>
<path d="M748.525 323.914L578.155 323.914" stroke="white" stroke-width="0.6"/>
<path d="M51.48 359.67H141.503" stroke="white" stroke-width="0.6"/>
<path d="M267.703 360.091L624.849 350.836" stroke="white" stroke-width="0.6"/>
<path d="M690.053 344.947L806.998 331.906" stroke="white" stroke-width="0.336534"/>
<path d="M796.482 334.01L785.544 356.305L752.312 361.353" stroke="white" stroke-width="0.6"/>
<path d="M138.558 316.342C140.802 296.43 157.067 256.607 204.182 256.607C251.297 256.607 269.245 295.308 272.33 314.659" stroke="white" stroke-width="0.6"/>
<path d="M594.561 316.342C596.805 296.43 613.071 256.607 660.185 256.607C707.3 256.607 725.249 295.308 728.333 314.659" stroke="white" stroke-width="0.6"/>
<path d="M38.86 280.164L155.385 275.958" stroke="white" stroke-width="0.336534"/>
<path d="M255.924 271.751L408.206 265.441" stroke="white" stroke-width="0.336534"/>
<path d="M643.5 237C679.677 226.904 722.578 209.327 802 245" stroke="white" stroke-width="0.336534"/>
<path d="M636.207 200.238C613.491 225.898 511.853 235.702 334.5 232" stroke="white" stroke-width="0.336534"/>
<path d="M72.5134 349.154L149.916 344.527" stroke="white" stroke-width="0.336534"/>
<path d="M278.64 344.526L564.694 326.438" stroke="white" stroke-width="0.6"/>
<path d="M293.784 334.43L539.875 315.921" stroke="white" stroke-width="0.336534"/>
<path d="M130.145 344.527L109.532 335.693L79.2441 337.375" stroke="white" stroke-width="0.336534"/>
<path d="M88.078 283.109C85.4138 288.017 87.6574 294.299 117.945 280.164C148.233 266.03 158.049 254.644 159.171 250.718" stroke="white"/>
</g>
<defs>
<filter id="filter0_f_81_242" x="38.5539" y="162.34" width="783.141" height="265.778" filterUnits="userSpaceOnUse" color-interpolation-filters="sRGB">
<feFlood flood-opacity="0" result="BackgroundImageFix"/>
<feBlend mode="normal" in="SourceGraphic" in2="BackgroundImageFix" result="shape"/>
<feGaussianBlur stdDeviation="0.15" result="effect1_foregroundBlur_81_242"/>
</filter>
</defs>
</svg>
