<svg width="2912" height="317" viewBox="0 0 2912 317" fill="none" xmlns="http://www.w3.org/2000/svg">
<path fill-rule="evenodd" clip-rule="evenodd" d="M999.592 312.118C1013.97 312.118 1021.05 294.631 1010.73 284.627L989.305 263.873C986.32 260.981 982.327 259.364 978.171 259.364H683.256C679.4 259.364 675.672 257.97 672.761 255.441L626.68 215.395C615.509 205.687 622.375 187.318 637.175 187.318H870.786C885.162 187.318 892.244 169.831 881.919 159.827L872.764 150.957C869.779 148.065 865.787 146.448 861.631 146.448H565.751C561.823 146.448 558.032 145.003 555.1 142.388L486.996 81.6372C476.027 71.8528 482.948 53.6972 497.646 53.6972H732.875C747.252 53.6972 754.334 36.2102 744.009 26.2062L721.615 4.509C718.63 1.61708 714.638 0 710.482 0H392.711H306.31C302.117 0 298.092 1.64567 295.1 4.58298L4.8227 289.583C-5.39936 299.619 1.70677 317 16.0321 317H40.7365C44.9672 317 49.0257 315.324 52.0242 312.34L178.302 186.642C181.3 183.657 185.359 181.981 189.59 181.981H510.516C514.658 181.981 518.638 183.587 521.62 186.461L647.342 307.638C650.324 310.512 654.305 312.118 658.446 312.118H720.437H999.592ZM808.297 27.4938C797.968 17.491 805.049 0 819.428 0H850.905C855.084 0 859.096 1.6344 862.085 4.55384L1106.21 242.996C1112.4 249.039 1122.27 249.072 1128.49 243.069L1376.01 4.48057C1378.99 1.60611 1382.97 0 1387.11 0H1498.35C1502.36 0 1506.21 1.5008 1509.17 4.20613L1733.36 209.737C1743.62 219.145 1760.17 211.865 1760.17 197.943V16C1760.17 7.16344 1767.33 0 1776.17 0H2186.15H2235.47C2238.67 0 2241.78 0.954289 2244.43 2.74023L2287.54 31.8542C2291.95 34.8292 2294.59 39.798 2294.59 45.1139V73.2242V101.689C2294.59 106.808 2292.14 111.618 2288 114.629L2248.45 143.388C2245.72 145.377 2242.42 146.448 2239.04 146.448H2193.9H2148.92C2134.44 146.448 2127.41 164.133 2137.92 174.075L2221.66 253.242C2227.82 259.062 2237.44 259.075 2243.62 253.27L2508.28 4.3451C2511.25 1.554 2515.17 0 2519.24 0H2599.47C2603.56 0 2607.5 1.56752 2610.47 4.38032L2906.39 284.499C2916.89 294.444 2909.85 312.118 2895.39 312.118H2877.24C2873.22 312.118 2869.35 310.607 2866.4 307.883L2732.91 184.855C2729.96 182.132 2726.09 180.62 2722.07 180.62H2401.99C2397.7 180.62 2393.58 182.349 2390.57 185.418L2271.05 307.32C2268.04 310.389 2263.92 312.118 2259.62 312.118H2198.57C2194.38 312.118 2190.35 310.47 2187.36 307.528L2028.17 151.039C2025.18 148.097 2021.15 146.448 2016.96 146.448H1838.13C1829.29 146.448 1822.13 153.612 1822.13 162.448V296.118C1822.13 304.955 1814.97 312.118 1806.13 312.118H1766.04H1107.7C1104.17 312.118 1100.79 310.748 1098.26 308.298L1047.91 259.537C1047.84 259.474 1047.89 259.364 1047.98 259.364C1048.07 259.364 1048.12 259.247 1048.04 259.186L1044.06 255.806L931.21 146.524C931.181 146.496 931.201 146.448 931.241 146.448C931.281 146.448 931.3 146.399 931.271 146.372L919.255 134.947L808.297 27.4938ZM1415.95 53.6971C1411.83 53.6971 1407.88 55.2825 1404.9 58.1238L1223.65 231.152C1213.2 241.119 1220.26 258.725 1234.69 258.725H1658.17C1672.8 258.725 1679.76 240.705 1668.92 230.874L1478.16 57.8461C1475.22 55.1761 1471.39 53.6971 1467.41 53.6971H1415.95ZM256.169 146.448C241.596 146.448 234.61 128.554 245.329 118.68L311.278 57.9292C314.232 55.2079 318.102 53.6972 322.118 53.6972H373.28C377.36 53.6972 381.285 55.2555 384.254 58.0535L448.713 118.804C459.254 128.738 452.224 146.448 437.74 146.448H256.169ZM2533.66 53.6972C2529.64 53.6972 2525.77 55.2079 2522.82 57.9292L2456.87 118.68C2446.15 128.553 2453.13 146.448 2467.71 146.448H2649.28C2663.76 146.448 2670.79 128.738 2660.25 118.804L2595.79 58.0535C2592.82 55.2555 2588.9 53.6972 2584.82 53.6972H2533.66ZM1835.15 36.0226C1826.31 36.0226 1819.15 43.1861 1819.15 52.0226V99.2726C1819.15 108.109 1826.31 115.273 1835.15 115.273H2033.92H2139.07H2191.64H2212.5C2216.02 115.273 2219.44 114.11 2222.24 111.966L2237.96 99.904C2241.9 96.8759 2244.22 92.1847 2244.22 87.2106V72.0454V65.0837C2244.22 59.5556 2241.36 54.419 2236.67 51.4986L2215.68 38.4376C2213.14 36.8592 2210.21 36.0226 2207.22 36.0226H2179.51H1835.15Z" fill="#D9D9D9"/>
</svg>
