<svg width="862" height="95" viewBox="0 0 862 95" fill="none" xmlns="http://www.w3.org/2000/svg">
<path fill-rule="evenodd" clip-rule="evenodd" d="M301.843 92.5678C304.692 92.5678 306.095 89.1027 304.049 87.1204L294.62 77.9848C294.029 77.4117 293.237 77.0913 292.414 77.0913H204.711C203.947 77.0913 203.208 76.8152 202.631 76.3139L185.606 61.5185C183.392 59.5947 184.753 55.9549 187.686 55.9549H264.055C266.903 55.9549 268.307 52.4898 266.261 50.5075L260.43 44.8581C259.839 44.2851 259.047 43.9646 258.224 43.9646H170.231C169.453 43.9646 168.702 43.6783 168.121 43.1601L144.725 22.2902C142.551 20.3514 143.923 16.7539 146.835 16.7539H223.595C226.444 16.7539 227.847 13.2887 225.801 11.3064L216.086 1.89347C215.495 1.32043 214.704 1 213.88 1H94.0577C93.2269 1 92.4293 1.32609 91.8365 1.90813L3.57258 88.5672C1.54704 90.5559 2.95514 94 5.79376 94H17.3969C18.2352 94 19.0394 93.668 19.6336 93.0765L57.572 55.3123C58.1661 54.7209 58.9704 54.3889 59.8087 54.3889H155.204C156.025 54.3889 156.814 54.7071 157.405 55.2766L195.174 91.6801C195.765 92.2496 196.553 92.5678 197.374 92.5678H301.843ZM76.0846 43.9646C73.1969 43.9646 71.8126 40.4188 73.9365 38.4623L96.5923 17.5924C97.1777 17.0532 97.9445 16.7539 98.7403 16.7539H114.95C115.758 16.7539 116.536 17.0626 117.124 17.6171L139.268 38.4869C141.357 40.4554 139.964 43.9646 137.094 43.9646H76.0846Z" stroke="white"/>
<path fill-rule="evenodd" clip-rule="evenodd" d="M239.256 6.44799C237.21 4.46591 238.613 1 241.462 1H255.072C255.9 1 256.695 1.32386 257.287 1.90236L330.409 73.3221C331.635 74.5196 333.591 74.526 334.825 73.3366L408.946 1.88784C409.537 1.31826 410.325 1 411.146 1H444.989C445.783 1 446.547 1.29739 447.132 1.83346L515.894 64.8723C517.928 66.7365 521.207 65.294 521.207 62.5353V4.17045C521.207 2.41946 522.627 1 524.378 1H661.116C661.749 1 662.367 1.1891 662.891 1.54299L676.596 10.7983C677.469 11.3878 677.992 12.3724 677.992 13.4258V31.6088C677.992 32.6231 677.507 33.5763 676.687 34.1729L664.057 43.358C663.515 43.7521 662.862 43.9644 662.192 43.9644H631.427C628.559 43.9644 627.165 47.4686 629.249 49.4387L657.642 76.282C658.862 77.4353 660.769 77.4378 661.992 76.2876L741.124 1.861C741.712 1.30793 742.489 1 743.296 1H768.044C768.854 1 769.634 1.31062 770.223 1.86798L860.258 87.0949C862.34 89.0656 860.945 92.5678 858.078 92.5678H848.333C847.537 92.5678 846.77 92.2683 846.184 91.7287L806.149 54.8286C805.563 54.289 804.796 53.9894 804 53.9894H708.863C708.012 53.9894 707.196 54.3321 706.599 54.9402L670.638 91.6171C670.042 92.2252 669.226 92.5678 668.374 92.5678H649.201C648.369 92.5678 647.571 92.2412 646.978 91.6583L599.389 44.874C598.796 44.291 597.998 43.9644 597.166 43.9644H542.556C540.805 43.9644 539.385 45.3838 539.385 47.1348V89.3974C539.385 91.1484 537.966 92.5678 536.215 92.5678H329.469C328.646 92.5678 327.855 92.2476 327.263 91.6749L312.258 77.1436C312.238 77.1246 312.252 77.0913 312.279 77.0913C312.307 77.0913 312.32 77.0559 312.299 77.0376L311.095 76.0177L278.023 43.9901C278.013 43.9809 278.02 43.9646 278.033 43.9646C278.047 43.9646 278.053 43.9483 278.044 43.939L274.014 40.1074L239.256 6.44799ZM419.609 16.7532C418.794 16.7532 418.01 17.0673 417.42 17.6303L361.052 71.4396C358.984 73.4145 360.381 76.9033 363.242 76.9033H495.229C498.129 76.9033 499.507 73.3326 497.36 71.3845L438.036 17.5753C437.453 17.0462 436.694 16.7532 435.906 16.7532H419.609ZM747.547 16.7539C746.752 16.7539 745.985 17.0532 745.399 17.5924L722.744 38.4623C720.62 40.4188 722.004 43.9646 724.892 43.9646H785.901C788.771 43.9646 790.164 40.4554 788.075 38.4869L765.931 17.6171C765.343 17.0626 764.565 16.7539 763.757 16.7539H747.547ZM541.695 11.569C539.944 11.569 538.524 12.9884 538.524 14.7394V31.6485C538.524 33.3995 539.944 34.819 541.695 34.819H654.44C655.138 34.819 655.817 34.5887 656.37 34.1638L661.988 29.8528C662.77 29.2528 663.229 28.3232 663.229 27.3376V19.2483C663.229 18.1529 662.663 17.1351 661.733 16.5564L654.486 12.0475C653.984 11.7348 653.403 11.569 652.811 11.569H541.695Z" stroke="white"/>
</svg>
